HIERARCHY
ROOT Hips
{
	OFFSET 0.00000 0.00000 0.00000
	CHANNELS 6 Xposition Yposition Zposition Zrotation Yrotation Xrotation 
	JOINT LHipJoint
	{
		OFFSET 0 0 0
		CHANNELS 3 Zrotation Yrotation Xrotation
		JOINT LeftUpLeg
		{
			OFFSET 1.37959 -1.78713 0.86582
			CHANNELS 3 Zrotation Yrotation Xrotation
			JOINT LeftLeg
			{
				OFFSET 2.54611 -6.99539 0.00000
				CHANNELS 3 Zrotation Yrotation Xrotation
				JOINT LeftFoot
				{
					OFFSET 2.59951 -7.14211 0.00000
					CHANNELS 3 Zrotation Yrotation Xrotation
					JOINT LeftToeBase
					{
						OFFSET 0.18493 -0.50810 1.96120
						CHANNELS 3 Zrotation Yrotation Xrotation
						End Site
						{
							OFFSET 0.00000 -0.00000 1.02054
						}
					}
				}
			}
		}
	}
	JOINT RHipJoint
	{
		OFFSET 0 0 0
		CHANNELS 3 Zrotation Yrotation Xrotation
		JOINT RightUpLeg
		{
			OFFSET -1.33564 -1.78713 0.86582
			CHANNELS 3 Zrotation Yrotation Xrotation
			JOINT RightLeg
			{
				OFFSET -2.52705 -6.94302 0.00000
				CHANNELS 3 Zrotation Yrotation Xrotation
				JOINT RightFoot
				{
					OFFSET -2.55964 -7.03257 0.00000
					CHANNELS 3 Zrotation Yrotation Xrotation
					JOINT RightToeBase
					{
						OFFSET -0.25804 -0.70896 2.12109
						CHANNELS 3 Zrotation Yrotation Xrotation
						End Site
						{
							OFFSET -0.00000 -0.00000 1.11821
						}
					}
				}
			}
		}
	}
	JOINT LowerBack
	{
		OFFSET 0 0 0
		CHANNELS 3 Zrotation Yrotation Xrotation
		JOINT Spine
		{
			OFFSET -0.02031 2.24248 -0.18900
			CHANNELS 3 Zrotation Yrotation Xrotation
			JOINT Spine1
			{
				OFFSET 0.08342 2.24689 -0.03799
				CHANNELS 3 Zrotation Yrotation Xrotation
				JOINT Neck
				{
					OFFSET 0 0 0
					CHANNELS 3 Zrotation Yrotation Xrotation
					JOINT Neck1
					{
						OFFSET -0.11607 1.55844 0.24628
						CHANNELS 3 Zrotation Yrotation Xrotation
						JOINT Head
						{
							OFFSET 0.06877 1.60174 -0.17013
							CHANNELS 3 Zrotation Yrotation Xrotation
							End Site
							{
								OFFSET 0.03358 1.61266 -0.08543
							}
						}
					}
				}
				JOINT LeftShoulder
				{
					OFFSET 0 0 0
					CHANNELS 3 Zrotation Yrotation Xrotation
					JOINT LeftArm
					{
						OFFSET 3.47537 0.55866 -0.72348
						CHANNELS 3 Zrotation Yrotation Xrotation
						JOINT LeftForeArm
						{
							OFFSET 5.38154 -0.00000 0.00000
							CHANNELS 3 Zrotation Yrotation Xrotation
							JOINT LeftHand
							{
								OFFSET 3.33312 -0.00000 0.00000
								CHANNELS 3 Zrotation Yrotation Xrotation
								JOINT LeftFingerBase
								{
									OFFSET 0 0 0
									CHANNELS 3 Zrotation Yrotation Xrotation
									JOINT LeftHandIndex1
									{
										OFFSET 0.71079 -0.00000 0.00000
										CHANNELS 3 Zrotation Yrotation Xrotation
										End Site
										{
											OFFSET 0.57306 -0.00000 0.00000
										}
									}
								}
								JOINT LThumb
								{
									OFFSET 0 0 0
									CHANNELS 3 Zrotation Yrotation Xrotation
									End Site
									{
										OFFSET 0.58181 -0.00000 0.58181
									}
								}
							}
						}
					}
				}
				JOINT RightShoulder
				{
					OFFSET 0 0 0
					CHANNELS 3 Zrotation Yrotation Xrotation
					JOINT RightArm
					{
						OFFSET -3.27844 0.90739 -0.35708
						CHANNELS 3 Zrotation Yrotation Xrotation
						JOINT RightForeArm
						{
							OFFSET -5.16954 -0.00000 0.00000
							CHANNELS 3 Zrotation Yrotation Xrotation
							JOINT RightHand
							{
								OFFSET -3.38287 -0.00000 0.00000
								CHANNELS 3 Zrotation Yrotation Xrotation
								JOINT RightFingerBase
								{
									OFFSET 0 0 0
									CHANNELS 3 Zrotation Yrotation Xrotation
									JOINT RightHandIndex1
									{
										OFFSET -0.81797 -0.00000 0.00000
										CHANNELS 3 Zrotation Yrotation Xrotation
										End Site
										{
											OFFSET -0.65947 -0.00000 0.00000
										}
									}
								}
								JOINT RThumb
								{
									OFFSET 0 0 0
									CHANNELS 3 Zrotation Yrotation Xrotation
									End Site
									{
										OFFSET -0.66953 -0.00000 0.66953
									}
								}
							}
						}
					}
				}
			}
		}
	}
}
MOTION
Frames: 6
Frame Time: .0083333
6.5294 17.6329 -15.9897 0 0 0 0 0 0 -21 0 0 0 0 0 0 0 0 0 0 0 0 0 0 21 0 0 0 0 0 0 0 0 0 0 0 0 0 0 0 0 0 0 0 0 0 0 -16 0 0 21 0 0 11 0 0 0 -8 0 0 0 0 0 0 0 0 0 0 0 0 0 0 0 0 0 0 0 0 8 0 0 0 0 0 0 0 0 0 0 0 0 0 0 0 0 0
6.5294 17.6329 -15.9897 -0.9417 -0.1380 1.7832 0.0000 0.0000 0.0000 -10.1281 -2.6191 -7.0704 1.3374 7.3225 20.6743 0.3555 -3.6414 -10.6027 1.0940 -6.6467 -18.6727 0.0000 0.0000 0.0000 23.3592 -0.7743 -6.7403 -1.0350 -6.4708 18.1567 -0.3688 -7.0228 -16.1509 -0.0835 -1.8637 5.1291 -0.1195 -2.1035 1.1647 3.0638 -2.8032 0.5132 3.2395 -1.4089 0.0331 -17.0416 -12.8531 -2.9558 11.1035 -17.4116 9.1684 4.7824 -8.6654 5.7135 0.0000 -0.0000 0.0000 -58.6637 -21.1435 15.4896 114.9770 -57.5063 -81.4496 -0.0000 -0.0000 16.1912 1.5082 37.2138 0.9123 -7.1250 0.0000 -0.0000 -39.6914 62.7369 -18.6041 0.0000 -0.0000 0.0000 56.6368 30.7402 25.7530 -117.3109 56.9849 -83.4125 0.0000 0.0000 9.4317 -22.5729 28.2717 -11.1391 7.1250 -0.0000 -0.0000 4.6422 0.1502 4.6697
6.5580 17.6285 -15.9901 -1.4877 -0.2211 1.7648 0.0000 0.0000 0.0000 -9.5815 -2.4906 -7.2764 1.3886 7.4557 21.0727 0.3840 -3.9481 -11.0191 0.7927 -5.6833 -15.8683 0.0000 0.0000 0.0000 23.8949 -0.5412 -6.3980 -0.9932 -6.3428 17.7823 -0.3380 -7.3120 -16.0241 -0.0774 -1.7948 4.9390 0.3457 -2.0579 0.8036 3.2396 -2.7518 0.7207 3.1397 -1.3861 0.4321 -16.8735 -12.9607 -4.5771 10.3494 -17.3543 11.0493 4.3874 -8.6168 6.4844 0.0000 0.0000 0.0000 -58.4185 -22.0503 15.3634 114.4557 -57.6149 -81.0097 -0.0000 -0.0000 16.3815 1.5507 37.4233 0.9425 -7.1250 0.0000 -0.0000 -39.9154 62.9079 -18.8865 0.0000 0.0000 0.0000 56.3412 30.9479 25.2900 -117.2957 56.9885 -83.3998 0.0000 0.0000 9.3770 -22.1385 27.9872 -10.8088 7.1250 -0.0000 -0.0000 4.8612 -0.2307 4.8591
6.5888 17.6277 -15.9929 -1.6373 -0.2353 1.7035 0.0000 0.0000 0.0000 -9.5129 -2.3638 -7.1636 1.3704 7.4088 20.9322 0.4014 -4.1853 -11.2673 0.5282 -4.6573 -12.9338 0.0000 0.0000 0.0000 23.9641 -0.4004 -6.3665 -1.0147 -6.4088 17.9753 -0.3434 -7.4001 -16.1778 -0.0665 -1.6637 4.5770 0.1109 -2.1514 1.8616 3.5786 -2.8319 -0.0578 3.6876 -1.4116 -0.9263 -17.6365 -12.2147 -3.3662 10.8860 -16.5687 11.2667 4.8453 -8.2875 6.3544 0.0000 -0.0000 0.0000 -59.1197 -21.1234 15.7722 114.3039 -57.6460 -80.8815 -0.0000 -0.0000 16.4366 2.0670 37.1493 1.2486 -7.1250 0.0000 -0.0000 -39.0653 62.8336 -18.3501 0.0000 -0.0000 0.0000 56.1540 30.1194 26.0890 -117.4119 56.9611 -83.4972 0.0000 0.0000 9.2452 -22.8503 28.3040 -11.2992 7.1250 -0.0000 -0.0000 4.4834 0.2401 4.5160
6.6247 17.6259 -15.9917 -1.3853 -0.3001 1.6086 0.0000 0.0000 0.0000 -9.9744 -2.0069 -7.0341 1.3484 7.3515 20.7608 0.4186 -4.1461 -11.5070 0.4652 -4.3747 -12.1334 0.0000 0.0000 0.0000 23.5392 -0.4498 -6.4359 -1.0484 -6.5111 18.2749 -0.3661 -7.2264 -16.3046 -0.0601 -1.5821 4.3520 -0.0370 -2.2077 1.8314 3.3929 -2.9128 -0.0482 3.5787 -1.4519 -0.8967 -17.6001 -11.7894 -3.2681 11.0514 -16.0604 11.6494 4.9636 -8.0402 6.3953 0.0000 0.0000 0.0000 -58.8812 -21.2164 15.6219 114.0609 -57.6953 -80.6761 -0.0000 -0.0000 16.3784 2.3892 36.9877 1.4380 -7.1250 0.0000 -0.0000 -38.5473 62.7930 -18.0310 0.0000 0.0000 0.0000 56.4345 30.2912 26.3267 -117.2064 57.0095 -83.3249 0.0000 0.0000 9.2415 -23.6552 28.8095 -11.9196 7.1250 -0.0000 -0.0000 4.0817 0.9320 4.1581
6.6614 17.6184 -15.9888 -0.9176 -0.4581 1.5924 0.0000 0.0000 0.0000 -10.7578 -1.5909 -6.8709 1.3034 7.2325 20.4059 0.4414 -3.6548 -11.8320 0.6006 -4.9609 -13.7969 0.0000 0.0000 0.0000 22.8521 -0.4612 -6.7064 -1.1018 -6.6696 18.7401 -0.3996 -6.8971 -16.4262 -0.0610 -1.5942 4.3855 -0.5361 -2.1195 0.9530 3.2288 -2.8318 0.4875 3.6357 -1.4261 0.1558 -17.1692 -11.6941 -3.8009 10.6744 -15.8354 11.9070 4.7774 -7.9158 6.4667 -0.0000 -0.0000 0.0000 -58.7701 -22.5098 15.4672 113.5201 -57.8029 -80.2188 -0.0000 -0.0000 16.4678 2.8792 37.1589 1.7400 -7.1250 0.0000 -0.0000 -38.2797 63.0542 -18.1195 -0.0000 -0.0000 0.0000 56.1762 31.0150 25.7000 -116.8955 57.0820 -83.0640 0.0000 0.0000 9.1777 -24.3084 29.1314 -12.4014 7.1250 -0.0000 -0.0000 3.7480 1.4073 3.8471
